<svg width="978" height="582" viewBox="0 0 978 582" fill="none" xmlns="http://www.w3.org/2000/svg">
<path d="M491.342 70.3155C494.827 85.1085 501.392 99.0345 517.977 126.815C543.837 170.133 548.788 182.968 549.032 207.315C549.145 218.52 548.931 219.945 545.811 228.815C541.687 240.541 538.057 247.885 537.407 245.815C537.149 244.99 536.218 239.974 535.34 234.668C533.234 221.953 529.433 209.999 524.639 201.02C522.497 197.007 514.057 183.507 505.884 171.02C486.298 141.094 484.129 137.228 479.969 124.83C477.045 116.116 476.358 112.431 475.957 103.315C475.257 87.3785 479.014 69.8475 486.029 56.3155L488.103 52.3155L488.898 57.8155C489.335 60.8405 490.435 66.4655 491.342 70.3155Z" fill="black"/>
<path d="M514.097 11.9805C515.689 28.2795 523.936 48.3155 538.313 70.8155C566.726 115.281 571.056 125.979 571.095 151.815C571.117 166.271 569.727 176.661 566.167 188.647C564.551 194.088 562.71 194.747 562.71 189.884C562.71 188.337 561.587 182.644 560.214 177.232C556.85 163.969 547.861 146.042 532.427 121.815C515.271 94.8855 511.293 87.8025 506.204 75.1275C497.002 52.2095 497.961 31.5225 509.29 8.56347C512.541 1.97647 513.164 2.41947 514.097 11.9805Z" fill="black"/>
<path d="M466.189 123.863C470.695 139.672 478.897 156.233 490.681 173.315C517.932 212.817 518.934 214.482 523.304 227.499C526.838 238.027 527.001 252.476 523.723 264.575C522.492 269.119 521.118 273.063 520.668 273.341C520.219 273.618 517.333 269.001 514.255 263.08C511.047 256.909 503.289 245.06 496.078 235.315C469.628 199.575 461.809 185.046 458.14 164.815C456.318 154.769 456.363 137.096 458.238 126.196C459.782 117.216 461.605 110.376 462.275 111.046C462.476 111.247 464.237 117.015 466.189 123.863Z" fill="black"/>
<path d="M359.963 398.631C363.237 399.009 363.502 400.321 360.615 401.866C358.884 402.792 358.631 403.581 359.16 406.401C359.874 410.206 359.252 410.615 356.519 408.142C354.783 406.571 354.49 406.602 351.73 408.642C347.958 411.431 347.546 411.377 348.735 408.25C350.125 404.593 350.02 404.184 346.97 401.355L344.23 398.815H347.893C351.226 398.815 351.664 398.484 352.771 395.131L353.986 391.448L355.602 394.881C356.776 397.378 357.966 398.401 359.963 398.631Z" fill="black"/>
<path d="M323.56 395.815C324.414 398.265 325.166 398.815 327.658 398.815C331.229 398.815 331.556 399.805 328.595 401.655C326.806 402.772 326.578 403.591 327.119 406.968C327.755 410.946 327.749 410.955 325.511 409.388C322.64 407.378 320.826 407.4 318.533 409.476C316.108 411.67 315.397 410.767 316.75 407.21C317.719 404.661 317.557 404.08 315.342 402.175C312.547 399.771 312.866 398.815 316.464 398.815C318.234 398.815 319.188 398.01 320.016 395.815C320.639 394.165 321.456 392.815 321.831 392.815C322.207 392.815 322.985 394.165 323.56 395.815Z" fill="black"/>
<path d="M294.543 398.628C298.213 398.991 298.561 400.105 295.644 402.149C293.916 403.359 293.694 404.213 294.287 407.375L294.996 411.155L292.083 409.08L289.169 407.005L286.292 409.101L283.416 411.196L284.11 407.498C284.718 404.257 284.457 403.495 282.007 401.339L279.21 398.878L282.895 398.847C286.201 398.818 286.713 398.448 287.869 395.252L289.157 391.689L290.267 395.002C291.169 397.699 291.965 398.373 294.543 398.628Z" fill="black"/>
<path d="M346.277 265.412C347.952 276.586 344.464 289.469 337.668 297.21C334.569 300.74 334.234 300.885 333.019 299.223C332.18 298.075 331.714 294.363 331.72 288.874C331.728 281.82 332.176 279.355 334.271 274.856C336.876 269.259 343.157 260.815 344.716 260.815C345.195 260.815 345.898 262.884 346.277 265.412Z" fill="black"/>
<path d="M311.324 285.797C315.142 287.676 319.233 290.737 321.758 293.602C326.272 298.724 329.199 303.659 328.274 304.584C327.008 305.85 316.397 304.77 312.302 302.959C306.459 300.374 300.139 294.49 296.624 288.362C295.032 285.586 293.725 282.915 293.719 282.425C293.7 280.578 305.195 282.779 311.324 285.797Z" fill="black"/>
<path d="M290.413 243.016C301.759 247.886 311.565 258.803 315.158 270.565C315.759 272.535 315.488 272.815 312.974 272.815C308.788 272.815 300.599 268.398 295.801 263.552C290.992 258.695 285.71 248.804 285.71 244.655C285.71 241.494 286.349 241.271 290.413 243.016Z" fill="black"/>
<path d="M338.195 239.065C337.201 249.1 334.608 256.823 330.232 262.786C323.25 272.296 320.289 271.78 320.314 261.059C320.327 255.547 320.908 253.128 323.491 247.815C326.985 240.631 334.54 231.815 337.203 231.815C338.725 231.815 338.834 232.612 338.195 239.065Z" fill="black"/>
<path d="M336.039 206.583C335.117 212.961 332.84 219.917 330.203 224.418C327.48 229.064 317.15 238.143 315.322 237.497C314.649 237.259 314.288 234.857 314.409 231.411C314.631 225.033 317.756 217.247 322.204 211.988C325.406 208.201 334.661 201.667 335.813 202.379C336.234 202.639 336.335 204.531 336.039 206.583Z" fill="black"/>
<path d="M286.026 204.959C293.971 209.122 303.663 221.767 306.259 231.359C307.225 234.926 307.731 238.127 307.385 238.474C306.068 239.791 297.549 235.48 293.291 231.342C288.203 226.396 284.351 219.374 282.202 211.122C281.381 207.972 280.71 205.039 280.71 204.605C280.71 203.453 283.506 203.639 286.026 204.959Z" fill="black"/>
<path d="M288.792 165.508C296.757 172.704 302.652 184.214 304.188 195.565C304.834 200.346 304.724 200.815 302.948 200.815C299.864 200.815 292.214 194.356 288.88 188.937C285.24 183.021 283.994 178.741 283.096 169.065C282.304 160.536 282.886 160.172 288.792 165.508Z" fill="black"/>
<path d="M334.71 174.422C334.71 179.474 329.275 190.303 324.183 195.394C319.678 199.9 312.267 204.277 310.742 203.334C308.639 202.035 312.242 189.56 316.501 183.391C319.094 179.635 330.849 170.948 333.46 170.858C334.237 170.831 334.71 172.18 334.71 174.422Z" fill="black"/>
<path d="M342.71 142.482C342.71 144.171 335.199 156.67 332.371 159.687C328.741 163.559 318.477 168.813 314.541 168.814C311.939 168.815 311.897 168.719 312.903 165.065C315.923 154.083 323.114 147.039 335.21 143.214C339.729 141.785 342.71 141.494 342.71 142.482Z" fill="black"/>
<path d="M296.823 129.065C299.11 131.952 301.756 136.115 302.701 138.315C306.279 146.636 308.13 165.815 305.356 165.815C301.748 165.815 294.112 155.779 291.615 147.757C288.922 139.104 289.036 123.815 291.794 123.815C292.272 123.815 294.535 126.178 296.823 129.065Z" fill="black"/>
<path d="M306.969 90.1855C313.153 99.9745 315.909 113.723 313.761 124.07C312.499 130.15 311.818 130.78 309.266 128.228C302.207 121.169 299.165 112.16 300.029 100.865C300.629 93.0145 302.293 85.8145 303.507 85.8175C303.894 85.8185 305.451 87.7845 306.969 90.1855Z" fill="black"/>
<path d="M351.574 116.379C352.44 117.165 347.198 124.09 342.626 128.201C337.513 132.797 331.898 135.192 323.46 136.376C319.052 136.994 318.71 136.886 318.71 134.879C318.71 130.342 325.199 122.363 331.872 118.694C337.008 115.87 349.409 114.413 351.574 116.379Z" fill="black"/>
<path d="M363.903 88.4345C365.41 89.3665 364.718 90.6545 360.46 94.8365C352.991 102.174 348.549 104.159 338.53 104.638C328.292 105.127 328.057 104.835 333.139 97.9125C336.694 93.0695 343.201 89.0545 349.71 87.6865C353.14 86.9665 362.308 87.4495 363.903 88.4345Z" fill="black"/>
<path d="M325.808 61.6565C330.235 73.1815 328.797 98.3155 323.71 98.3155C322.885 98.3155 320.86 95.8405 319.21 92.8155C316.369 87.6075 316.21 86.7045 316.21 75.8155C316.21 65.8455 316.527 63.6145 318.59 59.0505C321.431 52.7635 322.547 53.1665 325.808 61.6565Z" fill="black"/>
<path d="M347.184 29.0395C349.988 38.4825 348.765 53.0975 344.442 61.8155C343.214 64.2905 341.467 66.4525 340.558 66.6195C337.917 67.1065 335.226 57.8535 335.231 48.3005C335.235 40.9385 335.58 39.5665 339.459 31.4825C341.782 26.6415 344.127 22.9555 344.67 23.2905C345.214 23.6265 346.345 26.2135 347.184 29.0395Z" fill="black"/>
<path d="M379.035 65.1425C381.139 65.7875 382.863 66.7655 382.868 67.3155C382.88 68.8625 371.008 76.6385 366.887 77.7835C359.695 79.7805 345.71 78.3485 345.71 75.6135C345.71 73.9485 353.609 66.7675 357.126 65.2365C360.899 63.5935 373.806 63.5385 379.035 65.1425Z" fill="black"/>
<path d="M390.068 41.2935C394.377 42.0225 402.71 45.7845 402.71 47.0005C402.71 47.4325 399.898 49.2125 396.46 50.9555C387.963 55.2645 378.664 55.9395 370.46 52.8425C367.297 51.6485 364.71 50.3325 364.71 49.9175C364.71 48.9655 368.409 45.5885 371.83 43.4175C374.597 41.6625 382.178 39.8565 384.71 40.3485C385.535 40.5095 387.946 40.9345 390.068 41.2935Z" fill="black"/>
<path d="M371.322 2.40747C372.37 6.58047 371.056 22.8825 369.235 28.3155C367.192 34.4095 362.638 41.3155 360.662 41.3155C358.384 41.3155 356.514 32.3755 357.162 24.5815C357.81 16.7715 361.031 8.79747 365.672 3.51147C369.518 -0.868527 370.454 -1.05153 371.322 2.40747Z" fill="black"/>
<path d="M414.261 5.89747C415.403 7.74547 407.832 17.4885 402.282 21.3105C398.452 23.9485 395.396 25.1665 391.169 25.7395C385.231 26.5455 381.71 26.1995 381.71 24.8085C381.71 23.2875 390.685 11.8785 393.154 10.2605C399.146 6.33447 412.788 3.51447 414.261 5.89747Z" fill="black"/>
<path d="M631.518 16.4115C636.965 18.6345 640.315 21.5135 644.111 27.2325C648.571 33.9515 648.825 36.8155 644.96 36.8145C641.226 36.8135 630.936 31.7015 626.997 27.8915C622.503 23.5445 617.477 16.0025 618.245 14.7595C619.02 13.5045 626.753 14.4675 631.518 16.4115Z" fill="black"/>
<path d="M662.86 14.0655C666.46 18.1765 671.063 29.0265 671.514 34.4645C672.008 40.4245 671.067 49.6195 669.744 51.7595C669.011 52.9475 668.595 52.9655 667.274 51.8685C664.737 49.7625 659.759 38.4495 658.592 32.1345C657.404 25.7075 658.288 11.8155 659.885 11.8155C660.437 11.8155 661.776 12.8285 662.86 14.0655Z" fill="black"/>
<path d="M687.254 41.9015C690.882 49.0615 693.043 58.3695 692.313 63.6935C691.404 70.3305 688.514 78.8155 687.164 78.8155C686.514 78.8155 684.684 76.0035 683.097 72.5655C680.383 66.6895 680.215 65.5665 680.285 53.8155C680.359 41.5565 681.642 35.0375 683.727 36.3265C684.289 36.6735 685.876 39.1825 687.254 41.9015Z" fill="black"/>
<path d="M655.71 52.8805C657.635 53.8845 660.56 55.8535 662.21 57.2565C665.093 59.7075 665.136 59.8645 663.328 61.2675C660.131 63.7505 651.625 65.0285 646.279 63.8305C639.084 62.2185 629.71 57.0755 629.71 54.7405C629.71 53.9515 637.298 51.2605 641.71 50.4855C645.598 49.8025 651.862 50.8735 655.71 52.8805Z" fill="black"/>
<path d="M670.214 75.7495C674.997 77.8235 681.71 83.9045 681.71 86.1645C681.71 88.3475 677.805 89.1775 670.345 88.5785C663.347 88.0165 658.182 85.6905 651.894 80.2685C646.96 76.0145 647.326 74.8485 653.94 73.7395C659.368 72.8295 665.115 73.5395 670.214 75.7495Z" fill="black"/>
<path d="M707.718 74.0985C709.131 78.1195 709.71 82.3415 709.71 88.6305C709.71 96.5305 709.375 98.1675 706.632 103.655C704.939 107.043 703.151 109.815 702.658 109.815C698.76 109.815 696.372 90.4915 699.013 80.3155C701.238 71.7415 703.659 66.3645 704.787 67.4925C705.304 68.0095 706.623 70.9825 707.718 74.0985Z" fill="black"/>
<path d="M683.21 99.6905C688.17 101.962 696.71 110.957 696.71 113.911C696.71 115.974 696.379 116.063 690.653 115.544C687.147 115.226 682.358 113.899 679.279 112.393C674.223 109.919 664.71 101.081 664.71 98.8585C664.71 97.0165 678.75 97.6485 683.21 99.6905Z" fill="black"/>
<path d="M692.35 127.313C697.105 129.294 703.268 135.343 705.614 140.333C708.248 145.938 708.265 145.815 704.869 145.815C696.429 145.815 686.755 140.13 680.255 131.351C676.931 126.861 676.754 126.315 678.395 125.632C680.677 124.684 688.217 125.592 692.35 127.313Z" fill="black"/>
<path d="M722.829 103.065C723.487 105.403 724.048 111.14 724.076 115.815C724.135 125.751 721.733 132.462 716.198 137.826L712.82 141.101L712.015 138.208C711.572 136.617 711.21 131.005 711.21 125.737C711.21 116.464 711.347 115.884 715.508 107.487C717.873 102.717 720.218 98.8155 720.72 98.8155C721.222 98.8155 722.171 100.727 722.829 103.065Z" fill="black"/>
<path d="M733.08 137.065C734.032 140.619 733.809 150.254 732.65 155.661C730.631 165.075 721.036 177.527 718.677 173.796C716.095 169.712 718.791 153.903 723.45 145.815C726.725 140.129 730.717 134.815 731.712 134.815C732.133 134.815 732.748 135.827 733.08 137.065Z" fill="black"/>
<path d="M691.888 152.168C698.105 154.039 703.369 157.842 707.199 163.229C710.439 167.786 713.535 176.323 712.37 177.488C710.962 178.896 702.196 174.234 696.721 169.165C689.781 162.74 683.172 150.815 686.551 150.815C687.014 150.815 689.415 151.424 691.888 152.168Z" fill="black"/>
<path d="M698.764 181.64C704.324 185.172 709.437 190.944 711.861 196.424C714.119 201.529 715.319 209.321 713.974 210.152C712.445 211.097 704.443 205.529 700.898 201.052C694.923 193.508 689.64 178.815 692.903 178.815C693.681 178.815 696.319 180.086 698.764 181.64Z" fill="black"/>
<path d="M739.698 177.065C739.676 186.792 735.528 197.908 730.052 202.912C726.549 206.112 722.568 208.815 721.356 208.815C720.85 208.815 720.658 205.528 720.923 201.392C721.511 192.241 724.754 185.116 731.884 177.315C738.335 170.257 739.714 170.213 739.698 177.065Z" fill="black"/>
<path d="M740.71 214.21C740.71 224.74 732.809 238.048 724.249 241.937C717.944 244.8 717.34 244.535 718.067 239.224C718.843 233.569 721.656 227.055 725.387 222.275C728.124 218.769 738.178 210.815 739.873 210.815C740.333 210.815 740.71 212.343 740.71 214.21Z" fill="black"/>
<path d="M697.069 211.93C705.13 217.269 710.075 226.376 710.988 237.565C711.526 244.159 710.324 244.344 704.117 238.623C699.215 234.104 695.596 228.594 693.385 222.282C691.522 216.967 690.368 208.815 691.477 208.815C691.967 208.815 694.483 210.217 697.069 211.93Z" fill="black"/>
<path d="M695.672 241.39C701.542 247.757 704.589 254.908 705.266 263.903C706.066 274.527 704.877 275.639 699.243 269.535C693.504 263.317 690.564 255.582 689.945 245.065C689.642 239.918 689.835 236.815 690.457 236.815C691.006 236.815 693.353 238.874 695.672 241.39Z" fill="black"/>
<path d="M737.281 250.565C736.126 255.483 730.687 265.684 727.546 268.826C723.872 272.499 718.127 275.571 714.125 276.001C711.751 276.257 711.151 275.899 710.892 274.076C710.082 268.372 721.123 254.265 729.71 250.034C736.044 246.913 738.105 247.057 737.281 250.565Z" fill="black"/>
<path d="M729.403 286.378C729.595 286.962 727.948 290.231 725.744 293.642C721.139 300.766 715.065 305.144 707.548 306.756C702.729 307.79 697.71 307.342 697.71 305.878C697.71 304.121 704.208 295.591 707.541 292.972C715.674 286.581 728.225 282.796 729.403 286.378Z" fill="black"/>
<path d="M692.019 276.025C694.416 280.762 694.71 282.457 694.71 291.52C694.71 297.628 694.285 301.96 693.647 302.354C691.869 303.453 689.142 300.109 685.636 292.529C682.803 286.403 682.237 283.924 681.887 276.094C681.66 271.022 681.79 266.072 682.176 265.094C682.784 263.554 683.312 263.811 686.103 267.011C687.877 269.043 690.539 273.1 692.019 276.025Z" fill="black"/>
<path d="M645.501 392.665C646.445 393.263 645.575 394.607 642.274 397.65L637.755 401.815L626.982 401.928C621.058 401.99 603.09 402.328 587.054 402.678L557.899 403.315L553.675 408.116C548.738 413.727 539.453 420.287 533.438 422.414C527.351 424.567 515.224 425.278 508.491 423.876C499.342 421.972 490.983 417.19 483.447 409.548L476.677 402.684L436.733 403.401L396.789 404.119L391.249 399.845C388.203 397.495 385.71 395.246 385.71 394.848C385.71 393.603 409.764 392.823 448.327 392.819L485.444 392.815L488.075 396.79C491.661 402.209 499.526 408.223 506.458 410.846C520.299 416.084 538.642 410.184 546.796 397.871L549.813 393.315L587.511 392.797C608.246 392.512 629.485 392.181 634.71 392.062C639.935 391.943 644.791 392.214 645.501 392.665Z" fill="black"/>
<path d="M487.692 366.286C490.487 370.808 497.783 377.188 503.106 379.765C509.349 382.787 521.166 383.55 527.852 381.363C535.476 378.87 542.989 373.512 546.855 367.814L550.21 362.867L614.495 362.841C675.42 362.816 678.731 362.906 677.827 364.565C677.303 365.527 675.338 367.792 673.461 369.597L670.048 372.88L614.401 372.832L558.754 372.784L551.982 379.643C542.81 388.932 533.409 393.611 522.21 394.46C506.908 395.62 495.351 391.204 483.712 379.749L476.668 372.815L418.439 372.792L360.21 372.769L355.46 368.237C352.848 365.744 350.71 363.505 350.71 363.26C350.71 363.015 381.048 362.815 418.128 362.815H485.547L487.692 366.286Z" fill="black"/>
<path d="M459.95 299.298C470.829 301.195 483.968 305.669 492.232 310.29C498.793 313.959 511.212 323.464 515.597 328.172L517.984 330.735L524.097 325.17C533.93 316.217 545.323 309.082 556.139 305.102C576.868 297.474 606.471 296.702 637.21 302.986C653.17 306.249 710.79 324.016 710.651 325.632C710.619 326.007 708.249 330.14 705.384 334.815L700.176 343.315L695.693 343.2C693.227 343.137 684.91 342.316 677.21 341.376C668.351 340.294 651.892 339.46 632.387 339.104C597.985 338.476 587.229 339.274 569.21 343.793C550.533 348.477 539.366 353.577 526.078 363.493C522.155 366.42 518.695 368.815 518.388 368.815C518.082 368.815 514.317 366.275 510.021 363.169C499.599 355.637 482.43 347.484 470.495 344.4C451.299 339.441 439.029 338.32 404.71 338.392C377.404 338.449 370.081 338.813 349.71 341.126L326.21 343.794L324.469 341.555C321.534 337.781 315.208 324.983 315.924 324.268C316.294 323.898 326.552 320.492 338.719 316.701C369.802 307.015 395.181 300.878 412.495 298.86C424.465 297.465 450.837 297.708 459.95 299.298Z" fill="black"/>
<path d="M679.713 396.815C683.219 396.815 683.545 397.813 680.632 399.632C678.85 400.745 678.653 401.527 679.254 405.122C679.94 409.228 679.914 409.279 678.003 407.565C675.864 405.646 672.184 405.24 671.21 406.815C669.907 408.923 668.787 407.68 669.369 404.772C669.837 402.429 669.446 401.163 667.669 399.272L665.361 396.815H668.567C670.542 396.815 671.953 396.239 672.241 395.315C673.81 390.293 673.916 390.233 675.333 393.565C676.455 396.201 677.282 396.815 679.713 396.815Z" fill="black"/>
<path d="M709.887 396.815H713.059L710.751 399.272C708.974 401.163 708.583 402.429 709.051 404.772C709.74 408.213 709.167 408.538 706.564 406.183C704.897 404.674 704.574 404.674 702.271 406.183C698.927 408.374 698.561 408.257 699.32 405.235C699.777 403.411 699.334 401.798 697.809 399.735L695.65 396.815H698.582C700.977 396.815 701.735 396.219 702.717 393.565L703.919 390.315L705.317 393.565C706.475 396.255 707.263 396.815 709.887 396.815Z" fill="black"/>
<path d="M735.56 393.815C736.431 396.312 737.147 396.815 739.832 396.815H743.059L740.884 399.129C739.548 400.552 738.71 402.731 738.71 404.784C738.71 408.103 738.696 408.112 736.633 406.246C734.641 404.442 734.434 404.437 731.503 406.119L728.449 407.872L729.06 404.817C729.523 402.502 729.191 401.351 727.69 400.066C724.949 397.719 725.211 396.815 728.631 396.815C731.063 396.815 731.661 396.313 732.21 393.815C732.572 392.165 733.239 390.815 733.692 390.815C734.144 390.815 734.985 392.165 735.56 393.815Z" fill="black"/>
<path fill-rule="evenodd" clip-rule="evenodd" d="M101.592 497.565C101.68 507.436 102.029 510.815 102.96 510.814C103.648 510.814 106.805 508.777 109.976 506.288C116.539 501.135 117.112 501.197 122.992 507.706C127.628 512.836 129.058 518.04 129.068 529.815C129.077 540.047 127.927 544.041 123.18 550.266C117.258 558.029 104.236 561.053 94.9222 556.826C87.6322 553.517 87.3362 551.999 87.4522 518.617C87.5082 502.833 87.9342 489.237 88.4002 488.405C88.8662 487.572 91.7142 485.048 94.7292 482.795L100.21 478.699L100.842 481.507C101.189 483.051 101.527 490.277 101.592 497.565ZM101.71 532.385C101.71 522.467 101.964 520.763 103.783 518.451C106.489 515.01 109.964 515.052 112.723 518.56C114.657 521.019 114.847 522.295 114.546 530.81C114.118 542.917 111.888 548.153 106.959 548.628C102.52 549.056 101.71 546.549 101.71 532.385Z" fill="black"/>
<path fill-rule="evenodd" clip-rule="evenodd" d="M79.7012 517.625C79.6972 538.355 79.4132 557.641 79.0722 560.484L78.4512 565.654L72.6432 561.69C66.1262 557.241 65.2472 555.429 64.2152 544.315C63.8572 540.465 62.7002 535.515 61.6442 533.315C59.4962 528.84 51.5562 519.815 49.7672 519.815C47.0512 519.815 45.3492 527.256 44.9162 541.018C44.5232 553.541 44.6722 555.106 46.6562 559.204C47.8502 561.67 50.6782 565.36 52.9402 567.404L57.0532 571.12L53.8662 573.967C51.3382 576.226 49.7242 576.815 46.0632 576.815C41.9652 576.815 40.9702 576.338 37.2002 572.565C33.7482 569.111 32.7182 567.192 31.7022 562.315C29.3892 551.221 31.6562 532.973 36.7892 521.37C37.9372 518.773 38.5952 516.367 38.2512 516.023C37.3822 515.154 29.8742 515.709 26.0102 516.928C17.8922 519.488 13.7302 530.326 19.2102 534.636C22.5022 537.226 22.3642 538.426 18.5442 540.401C13.7022 542.905 6.98918 541.811 3.54618 537.958C-3.79782 529.738 0.69418 516.553 13.0612 510.031C17.9012 507.478 18.9932 507.315 31.2772 507.315H44.3432L51.7772 499.767C59.5642 491.859 77.3482 478.473 78.8412 479.396C79.3192 479.691 79.7062 496.895 79.7012 517.625ZM59.6352 520.277C51.2962 512.124 51.2622 511.139 59.0352 503.065C61.2852 500.728 63.4832 498.815 63.9182 498.815C64.3542 498.815 64.7102 504.761 64.7102 512.027V525.24L59.6352 520.277Z" fill="black"/>
<path d="M176.906 523.854C177.158 542.112 177.467 546.057 178.71 546.859C181.421 548.608 184.101 547.38 186.993 543.065C188.56 540.728 190.214 538.815 190.669 538.815C192.757 538.815 192.571 542.581 190.248 547.328C186.44 555.112 184.761 556.223 176.163 556.657C168.979 557.02 168.721 556.951 165.931 553.896L163.068 550.763L161.142 552.891C154.885 559.804 141.087 559.29 137.746 552.018C136.367 549.017 135.015 518.719 136.072 514.508C136.597 512.417 147.194 502.815 148.977 502.815C149.208 502.815 149.702 511.927 150.075 523.065C150.449 534.203 151.022 544.328 151.349 545.565C152.027 548.133 156.173 548.674 159.008 546.565C161.348 544.824 162.71 536.447 162.71 523.789C162.71 515.006 163.031 512.656 164.46 510.96C166.428 508.625 174.835 501.946 175.906 501.866C176.289 501.838 176.739 511.733 176.906 523.854Z" fill="black"/>
<path d="M237.811 475.953C243.58 477.885 247.806 481.785 250.545 487.708C253.018 493.056 253.169 494.386 253.817 516.514C254.568 542.143 255.508 546.375 260.866 548.221C264.159 549.355 269.31 547.432 270.89 544.479C271.581 543.188 272.181 531.998 272.495 514.571L272.997 486.724L278.103 482.482C280.912 480.149 284.027 477.614 285.026 476.85C286.776 475.511 286.831 477.089 286.526 519.888C286.22 562.977 286.145 564.457 284.047 568.997C281.568 574.361 275.534 579.247 269.325 580.919C264.885 582.114 258.087 581.592 256.422 579.927C255.306 578.811 255.868 578.496 260.985 577.373C262.512 577.038 265.509 575.017 267.646 572.88C271.126 569.4 271.606 568.3 272.242 562.359C272.633 558.71 272.775 555.546 272.557 555.328C272.339 555.111 269.381 556.311 265.984 557.995C261.164 560.384 259.052 560.914 256.37 560.411C250.785 559.363 246.448 555.792 243.425 549.75C240.704 544.313 240.618 543.613 239.694 519.43C239.175 505.815 238.282 492.939 237.711 490.818C235.048 480.93 222.39 478.569 216.007 486.769C213.716 489.712 213.35 496.396 215.299 499.696C218.221 504.643 222.764 505.721 230.46 503.292C233.087 502.463 233.438 504.429 231.602 509.696C229.473 515.802 220.015 517.825 213.608 513.545C203.164 506.568 204.703 487.732 216.373 479.703C218.703 478.099 221.645 476.372 222.91 475.865C226.154 474.563 233.794 474.608 237.811 475.953Z" fill="black"/>
<path d="M375.675 503.823C375.694 505.202 374.623 508.374 373.293 510.871L370.877 515.41L375.043 518.047C383.959 523.688 386.821 529.079 385.275 537.32C384.443 541.756 378.786 548.226 373.288 551.031C366.481 554.504 354.692 553.112 350.758 548.373C348.893 546.126 347.717 546.416 343.969 550.048C340.975 552.951 340.029 553.282 334.733 553.282C330.195 553.282 328.135 552.766 325.812 551.048C324.15 549.82 322.568 548.815 322.295 548.815C322.022 548.815 320.141 549.94 318.115 551.315C315.232 553.271 313.169 553.815 308.626 553.815C300.667 553.815 298.005 551.474 296.689 543.315C295.373 535.151 295.455 514.844 296.822 510.925C297.947 507.697 307.403 499.507 308.921 500.446C309.355 500.714 309.716 509.57 309.724 520.125C309.731 530.68 310.01 540.332 310.343 541.576C311.225 544.868 315.356 545.615 318.01 542.961C319.892 541.078 320.206 539.238 320.839 526.37C321.23 518.409 321.828 511.018 322.169 509.946C322.797 507.967 333.203 498.815 334.825 498.815C335.312 498.815 335.716 507.927 335.724 519.065C335.731 530.203 336.009 540.328 336.34 541.565C337.453 545.717 344.094 543.842 345.169 539.073C345.995 535.407 352.506 526.582 354.017 527.081C354.673 527.298 355.447 529.465 355.736 531.896C356.396 537.442 356.883 538.194 361.095 540.193C365.41 542.241 370.935 542.268 374.822 540.258C380.4 537.373 378.582 535.22 364.225 527.703C357.083 523.965 351.087 520.445 350.9 519.884C350.712 519.322 351.773 516.633 353.257 513.906C355.497 509.792 356.828 508.588 361.083 506.836C366.984 504.406 369.887 502.222 371.688 498.856L372.96 496.479L374.3 498.897C375.036 500.227 375.655 502.444 375.675 503.823Z" fill="black"/>
<path d="M469.686 472.802C472.757 474.446 475.71 480.235 475.71 484.61C475.71 487.805 475.149 489.111 473.075 490.742C469.351 493.672 468.079 493.36 465.21 488.815C460.958 482.08 456.547 483.834 454.31 493.15C453.311 497.311 454.425 499.815 457.277 499.815C460.468 499.815 460.479 502.507 457.295 503.958C455.966 504.564 454.623 506.016 454.308 507.187C453.994 508.357 453.724 522.365 453.707 538.315L453.678 567.315L447.444 572.516L441.21 577.719L440.589 563.016C440.248 554.931 439.91 548.238 439.839 548.143C439.768 548.047 438.473 548.573 436.96 549.312C431.515 551.974 423.735 551.549 419.974 548.384L417.085 545.953L412.323 549.052C403.952 554.497 394.855 552.598 392.734 544.962C392.177 542.956 391.719 533.833 391.716 524.688L391.71 508.059L398.071 502.474L404.433 496.889L405.071 502.999C405.423 506.359 405.71 515.822 405.71 524.027C405.71 542.589 406.998 545.641 412.836 540.914C415.05 539.122 415.221 538.16 415.817 524.164C416.165 515.997 416.784 508.521 417.192 507.551C417.6 506.581 420.584 503.772 423.822 501.31L429.71 496.832L429.809 513.573C429.863 522.781 430.201 532.79 430.559 535.815C431.155 540.847 431.439 541.341 433.897 541.625C435.906 541.857 437.029 541.258 438.344 539.25C439.827 536.987 440.112 534.109 440.157 520.94C440.209 505.479 440.186 505.312 437.96 504.995C435.15 504.596 435.12 503.653 437.84 501.22C439.011 500.172 440.748 497.512 441.7 495.307C444.241 489.425 448.124 485.272 456.136 479.865C460.059 477.218 463.873 474.324 464.612 473.434C466.168 471.558 467.137 471.438 469.686 472.802Z" fill="black"/>
<path fill-rule="evenodd" clip-rule="evenodd" d="M551.71 512.756C551.71 536.53 551.331 552.931 550.772 553.276C550.257 553.595 547.444 551.909 544.522 549.529L539.21 545.201L538.441 537.495C538.018 533.256 536.782 527.409 535.693 524.5C533.371 518.293 527.588 511.499 525.043 511.989C522.287 512.52 520.472 520.164 520.334 531.815C520.176 545.222 522.064 551.245 528.036 556.375L532.21 559.961L529.404 562.388C523.675 567.343 514.703 564.564 510.87 556.646C506.287 547.179 507.384 525.76 513.089 513.298C516.157 506.597 515.407 505.893 507.162 507.738C499.696 509.409 495.71 513.247 495.71 518.764C495.71 521.893 496.318 523.474 498.189 525.208L500.668 527.506L498.375 529.66C493.905 533.859 483.942 531.13 481.597 525.065C479.934 520.762 480.992 512.705 483.701 509.041C486.408 505.379 491.676 501.683 496.609 499.985C500.552 498.628 510.582 498.484 515.856 499.71C519.356 500.524 519.655 500.372 523.338 495.936C525.448 493.395 529.342 489.328 531.992 486.899C537.039 482.273 549.67 472.92 550.96 472.854C551.373 472.832 551.71 490.788 551.71 512.756ZM527.711 503.853C527.711 503.007 529.837 499.615 532.435 496.315L537.159 490.315L537.877 494.315C538.822 499.58 538.909 514.815 537.994 514.815C536.582 514.815 527.71 505.357 527.711 503.853Z" fill="black"/>
<path fill-rule="evenodd" clip-rule="evenodd" d="M691.08 473.065C691.411 474.303 691.733 486.34 691.795 499.815C691.857 513.29 692.201 526.79 692.559 529.815C693.147 534.786 693.459 535.345 695.796 535.617C699.638 536.063 700.683 533.985 701.81 523.665C702.371 518.523 703.625 512.74 704.597 510.815C705.718 508.593 710.159 504.437 716.757 499.435L727.152 491.556L730.931 495.814C734.21 499.509 734.71 500.721 734.71 504.976C734.71 513.657 732.031 517.505 720.387 525.544C715.198 529.127 714.657 531.065 717.884 534.501C721.977 538.857 734.003 537.072 738.423 531.453C739.875 529.607 740.683 526.586 741.195 521.081C741.593 516.81 742.369 512.415 742.919 511.315C743.47 510.215 748.253 505.177 753.548 500.12C764.37 489.785 763.743 489.86 769.821 498.166L772.639 502.017L778.362 496.293L784.085 490.57L788.308 495.04C793.568 500.607 794.541 504.061 795.365 520.102C795.726 527.135 796.328 533.079 796.702 533.31C797.075 533.541 798.693 533.383 800.296 532.958C804.456 531.856 805.584 527.623 805.666 512.815L805.735 500.315L811.192 495.53C814.193 492.898 816.868 490.648 817.136 490.53C817.405 490.412 817.778 499.434 817.966 510.578C818.262 528.115 818.54 531.073 820.028 532.561C821.351 533.885 822.146 534.033 823.479 533.201C826.841 531.101 827.68 527.586 827.695 515.534C827.711 502.584 828.968 497.788 832.875 495.771C834.159 495.108 836.18 493.682 837.367 492.603L839.523 490.642L839.867 510.194C840.162 527.026 840.448 529.984 841.923 531.458C843.326 532.859 844.086 532.966 846.119 532.039C849.044 530.707 849.363 529.183 850.252 512.32C850.6 505.723 851.227 499.713 851.646 498.964C852.065 498.215 854.614 495.863 857.309 493.736L862.21 489.869L862.476 516.224L862.742 542.579L859.498 548.229C856.981 552.611 854.128 555.47 846.774 560.988L837.295 568.099L834.002 564.29C830.285 559.99 829.717 555.638 832.236 550.766C834.34 546.697 838.127 546.705 839.548 550.781C840.235 552.751 841.498 553.976 843.314 554.432C847.6 555.507 849.71 552.133 849.71 544.203V537.811L845.975 539.813C840.692 542.645 835.582 542.419 831.739 539.186L828.614 536.557L826.412 538.547C821.158 543.297 813.675 543.507 809.198 539.031L806.658 536.49L803.706 539.32C799.455 543.393 791.264 544.056 787.304 540.649C784.614 538.336 784.497 537.808 783.302 522.508C782.345 510.253 781.697 506.373 780.39 505.067C778.817 503.493 778.6 503.496 776.982 505.114C775.535 506.561 775.166 509.518 774.711 523.294L774.167 539.747L768.689 544.735C765.675 547.479 762.873 549.746 762.46 549.771C762.047 549.796 761.71 541.107 761.71 530.464C761.71 509.293 760.895 504.5 757.384 505.011C754.677 505.404 753.963 508.165 753.685 519.315C753.562 524.265 753.18 531.301 752.836 534.948C752.217 541.501 752.148 541.63 746.989 545.698C744.118 547.963 741.531 549.815 741.239 549.815C740.948 549.815 740.71 546.665 740.71 542.815C740.71 538.965 740.437 535.815 740.104 535.815C739.771 535.815 738.203 536.905 736.62 538.237C732.953 541.323 723.673 544.815 719.14 544.815C714.187 544.815 709.28 542.505 706.636 538.928L704.365 535.859L701.966 539.388C699.184 543.483 696.3 544.815 690.218 544.815C686.424 544.815 685.468 544.346 682.884 541.211C680.115 537.852 679.867 537.746 679.252 539.683C678.13 543.218 673.852 545.815 669.152 545.815C665.811 545.815 663.875 545.06 660.391 542.401L655.919 538.988L653.149 541.878C647.516 547.758 637.75 547.997 634.717 542.328C633.094 539.297 632.126 539.169 630.716 541.805C629.196 544.644 624.464 546.815 619.794 546.815C616.749 546.815 614.945 546.083 612.323 543.781L608.867 540.747L604.345 543.933C596.098 549.746 586.222 547.654 584.449 539.719C581.001 524.286 581.461 525.34 578.026 525.008C573.927 524.61 572.881 526.513 571.365 537.125L570.21 545.208L564.71 549.691L559.21 554.174L558.549 548.745C558.185 545.759 558.147 529.365 558.465 512.315L559.043 481.315L564.576 476.815C567.619 474.34 570.47 472.165 570.91 471.982C571.35 471.798 571.71 478.661 571.71 487.232C571.71 495.802 572.047 502.815 572.46 502.814C572.873 502.814 575.883 500.716 579.149 498.151L585.089 493.489L588.381 497.298C592.547 502.117 593.532 506.867 591.326 511.495C589.614 515.084 589.779 515.944 592.833 519.352C594.355 521.05 596.603 531.083 596.69 536.565C596.702 537.321 598.08 537.815 600.175 537.815C604.451 537.815 605.339 536.345 606.25 527.766C607.453 516.417 610.562 512.753 629.264 500.64C634.794 497.059 640.246 492.949 641.379 491.509L643.44 488.889L644.133 511.102C644.514 523.319 645.055 534.103 645.335 535.065C645.669 536.212 646.844 536.815 648.742 536.815C652.504 536.815 653.301 535.133 654.188 525.315C655.389 512.026 658.278 507.575 671.21 499.088C675.06 496.562 678.541 494.004 678.945 493.405C679.349 492.805 679.686 489.63 679.695 486.349C679.709 480.591 679.873 480.218 684.422 475.599C687.014 472.968 689.437 470.815 689.806 470.815C690.175 470.815 690.748 471.827 691.08 473.065ZM667.38 522.305C667.415 513.188 668.697 509.9 674.477 504.104L678.21 500.362L678.533 504.838C678.711 507.301 678.711 514.865 678.533 521.648C678.249 532.484 677.974 534.152 676.269 535.398C670.758 539.421 667.334 534.378 667.38 522.305ZM714.718 514.712C715.157 508.797 715.644 507.287 717.629 505.679C720.482 503.369 721.453 503.59 724.113 507.153C726.118 509.838 726.119 509.9 724.224 513.42C722.181 517.212 717.329 521.815 715.373 521.815C714.524 521.815 714.339 519.812 714.718 514.712ZM571.94 515.768C572.316 511.859 573.048 509.96 574.692 508.629C575.924 507.631 577.295 506.815 577.739 506.815C584.287 506.815 582.324 514.751 574.674 519.206L571.429 521.094L571.94 515.768ZM619.71 526.56C619.71 518.844 621.187 514.547 625.206 510.565C630.206 505.613 630.712 506.488 630.695 520.065C630.679 533.791 629.695 537.136 625.534 537.622C621.489 538.094 619.71 534.715 619.71 526.56Z" fill="black"/>
<path d="M815.918 473.518C818.004 475.555 819.698 477.692 819.683 478.268C819.65 479.526 813.013 486.815 811.899 486.815C811.469 486.815 809.378 485.035 807.254 482.86C803.83 479.354 803.546 478.7 804.751 477.11C807.04 474.087 811.054 469.815 811.605 469.815C811.891 469.815 813.832 471.481 815.918 473.518Z" fill="black"/>
<path fill-rule="evenodd" clip-rule="evenodd" d="M903.719 505.315C904.027 526.002 904.734 531.247 907.265 531.609C909.774 531.968 912.084 529.48 913.581 524.807C914.734 521.211 919.036 515.815 920.75 515.815C921.278 515.815 921.71 517.635 921.71 519.86C921.71 526.621 927.58 530.812 935.079 529.406C936.925 529.059 939.242 527.885 940.228 526.795C941.876 524.974 941.891 524.674 940.417 523.044C939.535 522.07 934.24 518.825 928.649 515.833C923.059 512.841 918.268 509.828 918.004 509.138C917.007 506.541 922.111 499.507 926.71 497.136C929.185 495.861 932.66 493.181 934.433 491.181L937.656 487.544L938.756 490.429C940.112 493.988 939.37 498.079 936.686 501.848L934.646 504.713L940.075 508.185C946.363 512.208 948.221 516.15 947.477 523.889C946.646 532.538 938.554 539.771 929.71 539.771C926.068 539.771 917.76 536.514 916.596 534.63C916.17 533.942 914.516 534.68 912.054 536.659C909.924 538.37 906.788 540.05 905.084 540.391C901.431 541.122 896.321 538.824 894.649 535.701C893.554 533.655 893.469 533.68 890.858 536.807C887.311 541.056 880.83 541.941 875.902 538.849C867.703 533.705 866.382 518.311 873.347 509.081C874.689 507.303 880.832 502.523 886.999 498.46C893.165 494.397 899.106 490.072 900.201 488.848L902.193 486.624L902.852 488.97C903.214 490.26 903.604 497.615 903.719 505.315ZM881.346 520.326C881.307 512.916 882.296 510.093 886.519 505.565C891.461 500.267 892.026 501.422 891.508 515.764C891.01 529.555 890.252 531.815 886.123 531.815C882.779 531.815 881.389 528.472 881.346 520.326Z" fill="black"/>
<path d="M968.945 529.63C971.23 529.893 971.96 529.358 973.38 526.38C976.574 519.683 979.281 523.119 976.346 530.144C974.143 535.417 969.331 538.815 964.068 538.815C954.899 538.815 953.864 536.516 953.021 514.276L952.413 498.236L958.811 492.888L965.21 487.54L965.71 508.427L966.21 529.315L968.945 529.63Z" fill="black"/>
<path d="M962.525 470.962C966.929 476.125 966.933 476.314 962.716 480.952L958.75 485.315L955.23 481.58C953.294 479.525 951.71 477.455 951.71 476.98C951.71 475.521 957.655 467.815 958.781 467.815C959.363 467.815 961.048 469.231 962.525 470.962Z" fill="black"/>
</svg>
